<svg xmlns="http://www.w3.org/2000/svg" width="1000" height="1000" viewBox="290 230 420 560">
<g>
<path d="M 527.00 770.56 L 524.98 771.48 C501.26,782.27 499.03,783.28 497.92,782.57 C497.78,782.47 497.65,782.35 497.50,782.21 C496.52,781.34 476.22,771.99 435.00,753.44 C423.73,748.36 410.90,742.54 406.50,740.49 C402.10,738.45 392.88,734.18 386.00,731.01 C379.12,727.83 367.65,722.53 360.50,719.23 C353.35,715.92 340.75,710.20 332.50,706.51 C324.25,702.82 313.34,697.84 308.25,695.45 L 299.00 691.10 L 299.00 587.98 L 307.75 583.91 C316.01,580.07 356.85,561.92 365.50,558.25 C367.70,557.31 371.03,555.67 372.90,554.59 L 376.30 552.63 L 372.40 550.83 C359.56,544.93 349.88,540.68 328.00,531.33 C314.52,525.58 302.47,520.20 301.21,519.39 C299.07,518.00 298.94,517.34 299.21,508.83 L 299.50 499.75 L 311.00 494.49 C328.75,486.37 352.49,475.71 363.14,471.07 C368.45,468.76 373.56,466.31 374.51,465.62 C374.76,465.43 374.98,465.28 375.03,465.09 C375.32,463.90 368.96,461.11 320.75,439.97 L 319.03 439.21 C312.17,436.21 304.86,432.67 302.78,431.36 L 299.00 428.97 L 299.00 325.87 L 313.25 319.06 C321.09,315.32 332.23,310.11 338.00,307.49 C343.77,304.87 353.67,300.35 360.00,297.44 C366.33,294.53 381.62,287.56 394.00,281.94 C406.38,276.32 424.38,268.14 434.00,263.77 C443.62,259.39 456.90,253.44 463.50,250.53 C470.10,247.62 481.01,242.73 487.75,239.66 L 500.00 234.07 L 507.75 237.40 C514.90,240.48 536.18,250.25 550.50,257.04 C553.80,258.60 563.92,263.24 573.00,267.34 C619.86,288.52 692.72,321.82 697.25,324.13 L 701.00 326.04 L 701.00 430.02 L 692.48 434.01 C687.80,436.20 683.78,438.00 683.55,438.00 C683.33,438.00 679.63,439.63 675.32,441.63 C671.02,443.62 661.42,447.93 654.00,451.20 C646.58,454.48 636.79,458.79 632.26,460.79 C627.73,462.79 624.36,464.74 624.76,465.13 C625.17,465.51 630.00,467.82 635.50,470.27 C641.00,472.71 655.85,479.30 668.50,484.91 C681.15,490.52 693.53,496.10 696.00,497.31 L 700.50 499.50 L 700.79 508.41 C700.95,513.34 700.64,517.76 700.10,518.30 C699.15,519.25 689.67,523.59 657.00,538.01 C648.47,541.77 637.90,546.44 633.51,548.39 C629.12,550.34 625.40,552.31 625.24,552.77 C625.09,553.23 627.33,554.65 630.23,555.93 C633.13,557.21 646.53,563.09 660.00,568.99 C673.47,574.90 688.10,581.48 692.50,583.62 L 700.50 587.50 L 700.76 639.29 L 701.02 691.09 L 693.76 694.44 C689.77,696.28 680.20,700.61 672.50,704.05 C664.80,707.49 654.67,712.09 650.00,714.27 C640.06,718.91 627.02,724.87 596.00,738.93 C583.62,744.55 568.78,751.35 563.00,754.05 C557.22,756.75 541.03,764.19 527.00,770.56 ZM 584.50 360.41 C591.10,363.44 596.80,365.94 597.16,365.96 C597.52,365.98 606.97,361.91 618.16,356.92 C629.35,351.92 642.55,346.04 647.50,343.85 C652.45,341.66 658.64,338.92 661.25,337.76 C663.86,336.60 666.00,335.06 666.00,334.33 C666.00,333.60 665.87,333.00 665.71,333.00 C665.24,333.00 637.76,320.78 619.00,312.23 C609.38,307.85 589.58,298.86 575.00,292.27 C560.42,285.68 546.25,279.26 543.50,278.00 C510.06,262.75 501.42,259.00 499.78,259.00 C498.72,259.00 492.37,261.43 485.67,264.39 C466.57,272.85 438.94,285.47 434.04,287.98 L 429.57 290.26 L 435.54 293.12 C438.82,294.69 446.23,298.07 452.00,300.63 C457.77,303.18 479.38,312.91 500.00,322.25 C520.62,331.59 538.40,339.58 539.50,340.00 C540.60,340.43 546.00,342.89 551.50,345.47 C557.00,348.05 563.97,351.23 567.00,352.53 C570.03,353.83 577.90,357.37 584.50,360.41 ZM 487.00 665.86 C493.33,668.66 499.29,670.96 500.25,670.97 C501.21,670.99 504.81,669.68 508.25,668.07 C515.52,664.65 528.93,658.72 544.50,652.04 C562.74,644.20 570.00,640.77 570.00,639.99 C570.00,639.57 561.56,635.53 551.25,630.99 C540.94,626.46 527.74,620.59 521.93,617.94 C516.12,615.30 507.57,611.57 502.93,609.64 C498.29,607.71 488.04,603.19 480.14,599.58 C472.25,595.97 465.38,593.26 464.89,593.57 C464.40,593.87 464.00,593.73 464.00,593.26 C464.00,592.22 454.96,587.70 454.27,588.39 C454.01,588.66 453.27,588.45 452.64,587.91 C450.23,585.88 430.79,577.01 429.92,577.55 C429.41,577.86 429.00,577.69 429.00,577.16 C429.00,576.63 422.91,573.62 415.47,570.47 L 401.93 564.74 L 395.22 567.81 C391.52,569.51 387.38,571.31 386.00,571.83 C380.46,573.91 339.25,592.32 335.77,594.26 L 332.04 596.35 L 340.77 600.23 C345.57,602.37 351.98,605.27 355.00,606.69 C358.02,608.10 363.65,610.59 367.50,612.23 C371.35,613.86 377.80,616.73 381.84,618.60 C385.88,620.47 389.37,622.00 389.61,622.00 C389.84,622.00 409.26,630.72 432.77,641.38 C456.27,652.05 480.67,663.06 487.00,665.86 ZM 486.50 753.00 C488.48,756.20 488.90,751.11 488.97,723.18 C488.98,720.14 488.99,717.40 489.01,714.91 C489.10,698.64 489.13,693.32 486.49,690.46 C484.81,688.63 482.04,687.81 477.50,685.77 C473.10,683.80 466.58,680.83 463.00,679.19 C459.42,677.54 446.38,671.61 434.00,666.00 C421.62,660.39 408.58,654.43 405.00,652.76 C388.31,644.93 384.74,643.50 380.82,643.07 C380.45,643.03 379.55,642.42 378.82,641.71 C377.65,640.56 367.55,635.75 332.44,619.62 C326.90,617.08 321.84,615.00 321.19,615.00 C319.43,615.00 319.50,673.95 321.25,676.27 C321.94,677.19 326.10,679.57 330.50,681.58 C334.90,683.59 349.30,690.18 362.50,696.23 C375.70,702.28 393.70,710.49 402.50,714.49 C411.30,718.48 421.42,723.10 425.00,724.75 C428.58,726.40 436.45,730.01 442.50,732.78 C448.55,735.55 460.17,741.01 468.33,744.91 C476.49,748.81 483.77,752.00 484.52,752.00 C485.27,752.00 486.16,752.45 486.50,753.00 ZM 510.65 747.75 C510.99,750.64 511.71,753.00 512.24,753.00 C512.76,753.00 520.40,749.62 529.20,745.50 C538.00,741.38 545.44,738.00 545.75,738.00 C546.05,738.00 552.42,735.13 559.90,731.61 C578.21,723.01 585.59,719.60 598.00,713.99 C603.78,711.38 614.35,706.56 621.50,703.26 C628.65,699.97 636.75,696.27 639.50,695.03 C658.80,686.35 672.98,679.69 675.76,678.00 L 679.03 676.01 L 678.76 646.26 L 678.50 616.50 L 675.75 616.79 C674.24,616.95 667.71,619.57 661.25,622.62 C654.79,625.67 643.13,631.03 635.35,634.53 C627.57,638.03 619.47,641.81 617.36,642.94 C615.26,644.08 613.24,645.00 612.88,645.00 C612.52,645.00 600.82,650.22 586.87,656.60 C572.91,662.97 555.20,671.02 547.50,674.48 C539.80,677.94 528.21,683.27 521.75,686.32 L 510.00 691.86 L 510.01 717.18 C510.01,731.11 510.30,744.86 510.65,747.75 ZM 397.50 450.51 C401.84,452.43 405.11,452.28 410.62,449.89 C413.31,448.72 424.95,443.60 436.50,438.50 C448.05,433.40 460.64,427.86 464.47,426.19 C468.31,424.52 471.59,422.73 471.76,422.22 C471.93,421.71 464.29,417.79 454.79,413.52 C417.82,396.90 408.45,392.82 407.00,392.66 C406.17,392.57 405.26,392.18 404.96,391.78 C404.66,391.38 397.01,387.63 387.96,383.45 C378.91,379.26 369.02,374.69 366.00,373.28 C344.21,363.14 323.26,353.80 322.00,353.66 C320.70,353.52 320.46,357.61 320.24,384.17 L 319.97 414.84 L 325.74 417.55 C339.64,424.08 362.19,434.47 370.00,437.96 C374.67,440.05 382.10,443.43 386.50,445.47 C390.90,447.51 395.85,449.78 397.50,450.51 ZM 589.50 449.95 C591.70,450.99 594.73,451.87 596.24,451.92 C597.75,451.96 604.27,449.57 610.74,446.61 C617.21,443.64 629.70,437.97 638.50,433.99 C647.30,430.02 660.01,424.14 666.75,420.94 L 679.00 415.11 L 679.00 385.03 C679.00,359.97 678.76,354.85 677.58,354.39 C676.80,354.09 666.79,358.21 655.33,363.53 C608.69,385.22 584.05,396.31 539.00,415.90 C528.83,420.32 526.28,421.68 527.03,422.26 C527.29,422.46 532.45,424.81 538.50,427.48 C558.73,436.41 578.47,445.08 582.00,446.58 C583.92,447.40 587.30,448.91 589.50,449.95 ZM 575.00 530.92 C586.28,535.88 596.28,539.95 597.23,539.97 C598.19,539.98 602.91,538.27 607.73,536.17 C653.31,516.24 668.00,509.62 668.00,509.02 C668.00,508.36 653.68,501.00 652.41,501.00 C651.92,501.00 623.94,488.74 603.17,479.43 L 597.84 477.04 L 588.17 481.44 C582.85,483.86 572.65,488.38 565.50,491.50 C550.48,498.05 532.51,505.96 529.26,507.46 C528.02,508.03 527.01,508.78 527.01,509.11 C527.00,509.72 533.46,512.65 575.00,530.92 ZM 397.50 538.09 C400.25,539.06 402.95,539.89 403.50,539.92 C404.05,539.95 409.67,537.69 416.00,534.90 C445.10,522.04 471.04,511.00 472.21,510.97 C475.45,510.89 467.19,505.89 455.91,501.10 C449.08,498.20 441.78,494.96 439.68,493.89 C437.59,492.83 435.45,492.22 434.93,492.54 C434.42,492.86 434.00,492.72 434.00,492.23 C434.00,491.33 432.96,490.82 413.32,482.10 L 402.14 477.14 L 386.32 483.94 C357.03,496.52 331.98,508.05 332.03,508.94 C332.05,509.25 338.91,512.53 347.28,516.22 C355.65,519.92 369.25,525.96 377.50,529.63 C385.75,533.31 394.75,537.11 397.50,538.09 ZM 395.00 362.63 C399.12,364.46 402.90,365.96 403.38,365.97 C403.87,365.99 410.62,363.15 418.38,359.66 C426.15,356.18 441.57,349.35 452.65,344.49 C464.87,339.14 472.63,335.21 472.36,334.50 C472.12,333.87 468.90,331.92 465.21,330.18 C450.63,323.31 406.37,303.77 404.29,303.29 C401.85,302.73 397.55,304.48 361.07,320.94 C339.16,330.82 335.07,333.05 335.02,335.09 C335.00,335.59 345.50,340.45 383.00,357.30 C385.48,358.41 390.88,360.81 395.00,362.63 ZM 491.50 493.53 C498.02,496.53 501.78,496.54 508.22,493.55 C511.13,492.20 518.67,488.86 525.00,486.13 C569.52,466.88 570.07,466.60 567.87,464.50 C565.83,462.55 541.84,451.98 540.85,452.59 C540.38,452.88 540.00,452.71 540.00,452.22 C540.00,451.00 535.08,448.83 533.93,449.55 C533.42,449.86 533.00,449.73 533.00,449.25 C533.00,448.77 531.09,447.54 528.75,446.52 C526.41,445.49 521.12,443.11 517.00,441.23 C512.88,439.35 507.27,436.96 504.53,435.92 L 499.57 434.03 L 489.53 438.12 C484.02,440.38 475.90,443.90 471.50,445.95 C467.10,447.99 458.33,451.96 452.00,454.75 C438.12,460.89 431.76,464.23 431.29,465.64 C431.09,466.22 443.44,472.21 458.72,478.96 C474.00,485.71 488.75,492.26 491.50,493.53 ZM 469.50 570.97 C485.45,578.07 499.06,583.91 499.75,583.94 C500.44,583.97 504.94,582.24 509.75,580.09 C517.62,576.58 539.50,567.00 561.68,557.36 C567.10,555.01 569.69,553.36 569.36,552.50 C568.82,551.09 547.32,541.41 545.25,541.64 C544.56,541.72 544.00,541.43 544.00,541.00 C544.00,540.18 524.31,531.51 522.39,531.48 C521.77,531.48 520.65,530.95 519.89,530.32 C517.47,528.32 502.27,522.00 499.88,522.00 C498.62,522.00 491.05,524.90 483.05,528.45 C475.05,531.99 460.68,538.31 451.13,542.48 C441.57,546.64 432.85,550.69 431.74,551.47 C431.24,551.82 430.78,552.06 430.71,552.39 C430.47,553.59 435.69,555.92 464.88,568.91 C466.36,569.57 467.90,570.26 469.50,570.97 ZM 583.00 621.41 C589.88,624.46 596.31,626.97 597.31,626.98 C598.30,626.99 605.95,623.90 614.31,620.12 C633.99,611.20 652.82,602.88 661.00,599.49 C664.58,598.00 667.63,596.67 667.79,596.52 C668.25,596.10 657.22,590.53 650.00,587.53 C646.42,586.05 637.65,582.22 630.50,579.03 C629.49,578.58 628.51,578.14 627.56,577.72 C603.07,566.79 598.55,564.76 594.80,565.74 C593.81,566.00 592.87,566.47 591.62,567.05 C589.36,568.09 579.62,572.37 570.00,576.56 C537.41,590.73 530.15,594.17 529.55,595.73 C529.22,596.59 529.08,597.40 529.23,597.53 C529.76,598.01 551.63,607.85 561.00,611.82 C566.22,614.04 576.12,618.35 583.00,621.41 ZM 482.00 402.07 C490.52,405.82 498.56,408.91 499.85,408.94 C502.06,409.00 514.86,403.68 533.77,394.86 C538.32,392.74 542.27,391.00 542.56,391.00 C544.35,391.00 567.94,379.59 568.35,378.53 C568.68,377.66 566.42,376.18 561.68,374.16 C555.17,371.40 528.71,359.58 515.02,353.32 C512.01,351.95 507.38,350.00 504.74,348.99 C499.94,347.17 499.93,347.17 493.72,349.66 C490.30,351.03 483.67,353.87 479.00,355.97 C474.33,358.07 461.61,363.72 450.75,368.52 C439.89,373.32 431.00,377.63 431.00,378.10 C431.00,379.20 438.15,382.83 454.00,389.78 C460.88,392.79 473.48,398.33 482.00,402.07 Z" fill="rgb(2,1,4)"/>
<path d="M 584.50 360.41 C577.90,357.37 570.03,353.83 567.00,352.53 C563.97,351.23 557.00,348.05 551.50,345.47 C546.00,342.89 540.60,340.43 539.50,340.00 C538.40,339.58 520.62,331.59 500.00,322.25 C479.38,312.91 457.77,303.18 452.00,300.63 C446.23,298.07 438.82,294.69 435.54,293.12 L 429.57 290.26 L 434.04 287.98 C438.94,285.47 466.57,272.85 485.67,264.39 C492.37,261.43 498.72,259.00 499.78,259.00 C501.42,259.00 510.06,262.75 543.50,278.00 C546.25,279.26 560.42,285.68 575.00,292.27 C589.58,298.86 609.38,307.85 619.00,312.23 C637.76,320.78 665.24,333.00 665.71,333.00 C665.87,333.00 666.00,333.60 666.00,334.33 C666.00,335.06 663.86,336.60 661.25,337.76 C658.64,338.92 652.45,341.66 647.50,343.85 C642.55,346.04 629.35,351.92 618.16,356.92 C606.97,361.91 597.52,365.98 597.16,365.96 C596.80,365.94 591.10,363.44 584.50,360.41 ZM 487.00 665.86 C480.67,663.06 456.27,652.05 432.77,641.38 C409.26,630.72 389.84,622.00 389.61,622.00 C389.37,622.00 385.88,620.47 381.84,618.60 C377.80,616.73 371.35,613.86 367.50,612.23 C363.65,610.59 358.02,608.10 355.00,606.69 C351.98,605.27 345.57,602.37 340.77,600.23 L 333.50 597.00 C333.58,597.00 333.65,597.00 333.73,597.00 C334.86,597.00 336.05,596.31 336.37,595.48 C336.86,594.20 336.60,594.14 334.73,595.11 C333.74,595.63 332.77,596.17 332.32,596.47 L 332.04 596.35 L 335.77 594.26 C339.25,592.32 380.46,573.91 386.00,571.83 C387.38,571.31 391.52,569.51 395.22,567.81 L 401.93 564.74 L 415.47 570.47 C422.91,573.62 429.00,576.63 429.00,577.16 C429.00,577.69 429.41,577.86 429.92,577.55 C430.79,577.01 450.23,585.88 452.64,587.91 C453.27,588.45 454.01,588.66 454.27,588.39 C454.96,587.70 464.00,592.22 464.00,593.26 C464.00,593.73 464.40,593.87 464.89,593.57 C465.38,593.26 472.25,595.97 480.14,599.58 C488.04,603.19 498.29,607.71 502.93,609.64 C507.57,611.57 516.12,615.30 521.93,617.94 C527.74,620.59 540.94,626.46 551.25,630.99 C558.91,634.36 565.54,637.46 568.44,639.00 C567.68,639.04 566.82,639.48 566.50,640.00 C566.16,640.55 566.81,641.00 567.94,641.00 C568.32,641.00 568.67,640.95 568.98,640.86 C566.42,642.43 558.86,645.87 544.50,652.04 C528.93,658.72 515.52,664.65 508.25,668.07 C504.81,669.68 501.21,670.99 500.25,670.97 C499.29,670.96 493.33,668.66 487.00,665.86 ZM 486.50 753.00 C486.16,752.45 485.27,752.00 484.52,752.00 C483.77,752.00 476.49,748.81 468.33,744.91 C460.17,741.01 448.55,735.55 442.50,732.78 C436.45,730.01 428.58,726.40 425.00,724.75 C421.42,723.10 411.30,718.48 402.50,714.49 C393.70,710.49 375.70,702.28 362.50,696.23 C349.30,690.18 334.90,683.59 330.50,681.58 C326.10,679.57 321.94,677.19 321.25,676.27 C319.50,673.95 319.43,615.00 321.19,615.00 C321.84,615.00 326.90,617.08 332.44,619.62 C367.55,635.75 377.65,640.56 378.82,641.71 C379.55,642.42 380.45,643.03 380.82,643.07 C384.74,643.50 388.31,644.93 405.00,652.76 C408.58,654.43 421.62,660.39 434.00,666.00 C446.38,671.61 459.42,677.54 463.00,679.19 C466.58,680.83 473.10,683.80 477.50,685.77 C482.04,687.81 484.81,688.63 486.49,690.46 C489.13,693.32 489.10,698.64 489.01,714.91 C488.99,717.40 488.98,720.14 488.97,723.18 C488.90,751.11 488.48,756.20 486.50,753.00 ZM 510.65 747.75 C510.30,744.86 510.01,731.11 510.01,717.18 L 510.00 691.86 L 521.75 686.32 C528.21,683.27 539.80,677.94 547.50,674.48 C555.20,671.02 572.91,662.97 586.87,656.60 C600.82,650.22 612.52,645.00 612.88,645.00 C613.24,645.00 615.26,644.08 617.36,642.94 C619.47,641.81 627.57,638.03 635.35,634.53 C643.13,631.03 654.79,625.67 661.25,622.62 C667.71,619.57 674.24,616.95 675.75,616.79 L 678.50 616.50 L 678.76 646.26 L 679.03 676.01 L 675.76 678.00 C672.98,679.69 658.80,686.35 639.50,695.03 C636.75,696.27 628.65,699.97 621.50,703.26 C614.35,706.56 603.78,711.38 598.00,713.99 C585.59,719.60 578.21,723.01 559.90,731.61 C552.42,735.13 546.05,738.00 545.75,738.00 C545.44,738.00 538.00,741.38 529.20,745.50 C520.40,749.62 512.76,753.00 512.24,753.00 C511.71,753.00 510.99,750.64 510.65,747.75 ZM 397.50 450.51 C395.85,449.78 390.90,447.51 386.50,445.47 C382.10,443.43 374.67,440.05 370.00,437.96 C362.19,434.47 339.64,424.08 325.74,417.55 L 319.97 414.84 L 320.24 384.17 C320.46,357.61 320.70,353.52 322.00,353.66 C323.26,353.80 344.21,363.14 366.00,373.28 C369.02,374.69 378.91,379.26 387.96,383.45 C397.01,387.63 404.66,391.38 404.96,391.78 C405.26,392.18 406.17,392.57 407.00,392.66 C408.45,392.82 417.82,396.90 454.79,413.52 C464.29,417.79 471.93,421.71 471.76,422.22 C471.59,422.73 468.31,424.52 464.47,426.19 C460.64,427.86 448.05,433.40 436.50,438.50 C424.95,443.60 413.31,448.72 410.62,449.89 C405.11,452.28 401.84,452.43 397.50,450.51 ZM 589.50 449.95 C587.30,448.91 583.92,447.40 582.00,446.58 C578.47,445.08 558.73,436.41 538.50,427.48 C534.31,425.63 530.55,423.93 528.55,423.00 C529.35,422.98 530.00,422.60 530.00,422.12 C530.00,421.64 531.36,420.68 533.02,419.99 C534.68,419.30 536.27,418.37 536.55,417.92 C536.83,417.47 534.80,418.09 532.05,419.30 C529.30,420.51 527.04,421.84 527.02,422.25 L 527.02 422.25 C526.29,421.67 528.86,420.31 539.00,415.90 C584.05,396.31 608.69,385.22 655.33,363.53 C666.79,358.21 676.80,354.09 677.58,354.39 C678.76,354.85 679.00,359.97 679.00,385.03 L 679.00 415.11 L 666.75 420.94 C660.01,424.14 647.30,430.02 638.50,433.99 C629.70,437.97 617.21,443.64 610.74,446.61 C604.27,449.57 597.75,451.96 596.24,451.92 C594.73,451.87 591.70,450.99 589.50,449.95 ZM 395.00 362.63 C390.88,360.81 385.48,358.41 383.00,357.30 C345.50,340.45 335.00,335.59 335.02,335.09 C335.07,333.05 339.16,330.82 361.07,320.94 C397.55,304.48 401.85,302.73 404.29,303.29 C406.37,303.77 450.63,323.31 465.21,330.18 C468.90,331.92 472.12,333.87 472.36,334.50 C472.63,335.21 464.87,339.14 452.65,344.49 C441.57,349.35 426.15,356.18 418.38,359.66 C410.62,363.15 403.87,365.99 403.38,365.97 C402.90,365.96 399.12,364.46 395.00,362.63 ZM 397.50 538.09 C394.75,537.11 385.75,533.31 377.50,529.63 C369.25,525.96 355.65,519.92 347.28,516.22 C341.38,513.62 336.23,511.22 333.70,509.92 C334.36,509.84 335.13,509.57 335.86,509.11 C336.71,508.57 336.83,508.02 336.20,507.62 C335.76,507.35 335.12,507.30 334.47,507.40 C341.45,503.73 362.48,494.18 386.32,483.94 L 402.14 477.14 L 413.32 482.10 C432.96,490.82 434.00,491.33 434.00,492.23 C434.00,492.72 434.42,492.86 434.93,492.54 C435.45,492.22 437.59,492.83 439.68,493.89 C441.78,494.96 449.08,498.20 455.91,501.10 C467.19,505.89 475.45,510.89 472.21,510.97 C471.04,511.00 445.10,522.04 416.00,534.90 C409.67,537.69 404.05,539.95 403.50,539.92 C402.95,539.89 400.25,539.06 397.50,538.09 ZM 575.00 530.92 C546.57,518.42 534.57,513.10 529.83,510.79 C530.26,510.90 530.67,510.97 531.00,510.97 C532.33,510.97 532.33,510.86 531.00,510.00 C529.73,509.18 529.78,509.03 531.31,509.02 C532.30,509.01 532.84,508.55 532.50,508.00 C532.16,507.45 532.53,507.00 533.32,507.00 C534.11,507.00 535.34,506.29 536.06,505.42 C537.01,504.28 536.01,504.48 532.44,506.15 C528.69,507.90 527.23,508.56 527.03,509.03 C527.16,508.67 528.12,507.99 529.26,507.46 C532.51,505.96 550.48,498.05 565.50,491.50 C572.65,488.38 582.85,483.86 588.17,481.44 L 597.84 477.04 L 603.17 479.43 C623.94,488.74 651.92,501.00 652.41,501.00 C653.44,501.00 662.99,505.81 666.61,508.00 C666.58,508.00 666.54,508.00 666.50,508.00 C665.67,508.00 665.00,508.45 665.00,509.00 C665.00,509.53 665.63,509.97 666.43,510.00 C661.59,512.49 644.97,519.88 607.73,536.17 C602.91,538.27 598.19,539.98 597.23,539.97 C596.28,539.95 586.28,535.88 575.00,530.92 ZM 491.50 493.53 C488.75,492.26 474.00,485.71 458.72,478.96 C443.44,472.21 431.09,466.22 431.29,465.64 C431.76,464.23 438.12,460.89 452.00,454.75 C458.33,451.96 467.10,447.99 471.50,445.95 C475.90,443.90 484.02,440.38 489.53,438.12 L 499.57 434.03 L 504.53 435.92 C507.27,436.96 512.88,439.35 517.00,441.23 C521.12,443.11 526.41,445.49 528.75,446.52 C531.09,447.54 533.00,448.77 533.00,449.25 C533.00,449.73 533.42,449.86 533.93,449.55 C535.08,448.83 540.00,451.00 540.00,452.22 C540.00,452.71 540.38,452.88 540.85,452.59 C541.84,451.98 565.83,462.55 567.87,464.50 C570.07,466.60 569.52,466.88 525.00,486.13 C518.67,488.86 511.13,492.20 508.22,493.55 C501.78,496.54 498.02,496.53 491.50,493.53 ZM 469.50 570.97 C467.90,570.26 466.36,569.57 464.88,568.91 C448.23,561.50 439.37,557.56 434.89,555.32 L 435.00 555.37 C442.00,558.57 443.89,558.66 438.00,555.50 C435.52,554.17 434.17,553.03 435.00,552.97 C436.23,552.86 436.25,552.74 435.10,552.29 C434.07,551.88 434.34,551.38 436.10,550.40 C437.42,549.67 438.05,549.07 437.50,549.08 C436.95,549.08 434.92,549.93 433.00,550.97 L 430.87 552.12 C431.05,551.91 431.39,551.72 431.74,551.47 C432.85,550.69 441.57,546.64 451.13,542.48 C460.68,538.31 475.05,531.99 483.05,528.45 C491.05,524.90 498.62,522.00 499.88,522.00 C502.27,522.00 517.47,528.32 519.89,530.32 C520.65,530.95 521.77,531.48 522.39,531.48 C524.31,531.51 544.00,540.18 544.00,541.00 C544.00,541.43 544.56,541.72 545.25,541.64 C547.32,541.41 568.82,551.09 569.36,552.50 C569.69,553.36 567.10,555.01 561.68,557.36 C539.50,567.00 517.62,576.58 509.75,580.09 C504.94,582.24 500.44,583.97 499.75,583.94 C499.06,583.91 485.45,578.07 469.50,570.97 ZM 583.00 621.41 C576.12,618.35 566.22,614.04 561.00,611.82 C551.63,607.85 529.76,598.01 529.23,597.53 C529.08,597.40 529.22,596.59 529.55,595.73 C530.15,594.17 537.41,590.73 570.00,576.56 C579.62,572.37 589.36,568.09 591.62,567.05 C592.87,566.47 593.81,566.00 594.80,565.74 C598.55,564.76 603.07,566.79 627.56,577.72 L 627.56 577.72 C628.51,578.14 629.49,578.58 630.50,579.03 C637.65,582.22 646.42,586.05 650.00,587.53 C655.10,589.64 662.09,593.04 665.60,595.01 C665.55,595.00 665.49,595.00 665.44,595.00 C663.97,595.00 663.52,596.19 664.60,597.26 C664.82,597.49 665.15,597.58 665.51,597.58 C664.30,598.10 662.71,598.78 661.00,599.49 C652.82,602.88 633.99,611.20 614.31,620.12 C605.95,623.90 598.30,626.99 597.31,626.98 C596.31,626.97 589.88,624.46 583.00,621.41 ZM 482.00 402.07 C473.48,398.33 460.88,392.79 454.00,389.78 C443.00,384.96 436.19,381.73 433.05,379.84 C433.40,380.03 433.80,380.22 434.25,380.42 C438.63,382.33 438.71,382.31 436.17,379.94 C434.95,378.81 434.19,377.50 434.48,377.03 C434.73,376.63 434.27,376.47 433.44,376.61 C436.81,374.86 443.31,371.80 450.75,368.52 C461.61,363.72 474.33,358.07 479.00,355.97 C483.67,353.87 490.30,351.03 493.72,349.66 C499.93,347.17 499.94,347.17 504.74,348.99 C507.38,350.00 512.01,351.95 515.02,353.32 C528.71,359.58 555.17,371.40 561.68,374.16 C566.42,376.18 568.68,377.66 568.35,378.53 C567.94,379.59 544.35,391.00 542.56,391.00 C542.27,391.00 538.32,392.74 533.77,394.86 C514.86,403.68 502.06,409.00 499.85,408.94 C498.56,408.91 490.52,405.82 482.00,402.07 ZM 667.31 596.77 C667.46,596.59 667.55,596.39 667.53,596.19 C667.75,596.36 667.84,596.47 667.79,596.52 C667.76,596.55 667.59,596.64 667.31,596.77 ZM 431.11 377.97 C431.09,378.23 431.24,378.51 431.54,378.81 C431.18,378.51 431.00,378.28 431.00,378.10 C431.00,378.07 431.04,378.03 431.11,377.97 ZM 668.00 509.03 L 668.00 509.02 C668.00,509.02 668.00,509.03 668.00,509.03 Z" fill="rgb(124,98,163)"/>
<path d="M 430.71 552.39 C430.73,552.29 430.79,552.20 430.87,552.12 L 433.00 550.97 C434.92,549.93 436.95,549.08 437.50,549.08 C438.05,549.07 437.42,549.67 436.10,550.40 C434.34,551.38 434.07,551.88 435.10,552.29 C436.25,552.74 436.23,552.86 435.00,552.97 C434.17,553.03 435.52,554.17 438.00,555.50 C443.89,558.66 442.00,558.57 435.00,555.37 L 434.89 555.32 C431.51,553.63 430.61,552.91 430.71,552.39 ZM 527.01 509.11 C527.01,509.09 527.01,509.06 527.03,509.03 C527.23,508.56 528.69,507.90 532.44,506.15 C536.01,504.48 537.01,504.28 536.06,505.42 C535.34,506.29 534.11,507.00 533.32,507.00 C532.53,507.00 532.16,507.45 532.50,508.00 C532.84,508.55 532.30,509.01 531.31,509.02 C529.78,509.03 529.73,509.18 531.00,510.00 C532.33,510.86 532.33,510.97 531.00,510.97 C530.67,510.97 530.26,510.90 529.83,510.79 C527.65,509.73 527.01,509.30 527.01,509.11 ZM 431.11 377.97 C431.38,377.73 432.20,377.26 433.44,376.61 C434.27,376.47 434.73,376.63 434.48,377.03 C434.19,377.50 434.95,378.81 436.17,379.94 C438.71,382.31 438.63,382.33 434.25,380.42 C433.80,380.22 433.40,380.03 433.05,379.84 C432.38,379.44 431.88,379.10 431.54,378.81 C431.24,378.51 431.09,378.23 431.11,377.97 ZM 530.00 422.12 C530.00,422.60 529.35,422.98 528.55,423.00 C527.65,422.58 527.11,422.32 527.03,422.26 L 527.02 422.25 L 527.02 422.25 C527.04,421.84 529.30,420.51 532.05,419.30 C534.80,418.09 536.83,417.47 536.55,417.92 C536.27,418.37 534.68,419.30 533.02,419.99 C531.36,420.68 530.00,421.64 530.00,422.12 ZM 332.03 508.94 C332.02,508.78 332.88,508.24 334.47,507.40 C335.12,507.30 335.76,507.35 336.20,507.62 C336.83,508.02 336.71,508.57 335.86,509.11 C335.13,509.57 334.36,509.84 333.70,509.92 C332.64,509.38 332.03,509.03 332.03,508.94 ZM 667.31 596.77 C666.92,596.96 666.29,597.23 665.51,597.58 C665.15,597.58 664.82,597.49 664.60,597.26 C663.52,596.19 663.97,595.00 665.44,595.00 C665.49,595.00 665.55,595.00 665.60,595.01 C666.51,595.51 667.18,595.92 667.53,596.19 C667.55,596.39 667.46,596.59 667.31,596.77 ZM 333.50 597.00 L 332.32 596.47 C332.77,596.17 333.74,595.63 334.73,595.11 C336.60,594.14 336.86,594.20 336.37,595.48 C336.05,596.31 334.86,597.00 333.73,597.00 C333.65,597.00 333.58,597.00 333.50,597.00 ZM 570.00 639.99 C570.00,640.15 569.67,640.44 568.98,640.86 C568.67,640.95 568.32,641.00 567.94,641.00 C566.81,641.00 566.16,640.55 566.50,640.00 C566.82,639.48 567.68,639.04 568.44,639.00 C569.44,639.53 570.00,639.88 570.00,639.99 ZM 668.00 509.03 C667.98,509.14 667.49,509.45 666.43,510.00 C665.63,509.97 665.00,509.53 665.00,509.00 C665.00,508.45 665.67,508.00 666.50,508.00 C666.54,508.00 666.58,508.00 666.61,508.00 C667.46,508.52 667.99,508.89 668.00,509.02 Z" fill="rgb(155,147,167)"/>
</g>
</svg>